# xmcd CD database file
#
# Track frame offsets:
#	150
#	26170
#	56667
#	79042
#	113585
#	146672
#	176332
#	202782
#	232095
#	257312
#
# Disc length: 3701 seconds
#
# Revision: 0
# Processed by: cddbd v1.5.2PL0 Copyright (c) Steve Scherf et al.
# Submitted via: CDex 1.70beta2
#
DISCID=7b0e730a
DTITLE=Oscar Peterson - meets Roy Hargrove and Ralph Moore
DYEAR=1996
DGENRE=Jazz
TTITLE0=Tin Tin Deo
TTITLE1=Rob Roy
TTITLE2=Blues for Stephane
TTITLE3=My folish heart
TTITLE4=Cool walk
TTITLE5=Ecstasy
TTITLE6=Just friends
TTITLE7=Truffles
TTITLE8=She has gone
TTITLE9=North York
EXTD=YEAR: 1996
EXTT0=
EXTT1=
EXTT2=
EXTT3=
EXTT4=
EXTT5=
EXTT6=
EXTT7=
EXTT8=
EXTT9=
PLAYORDER=
